#!OML:ASF H:\Dans Jumps\Project 1\Capture day 1\Session 1\subject.ASF
:FULLY-SPECIFIED
:DEGREES
149
root 0.51712 17.5407 -13.81 5.40256 -1.28639 -1.28535
lowerback -2.22899 -0.410247 0.0338885
upperback 2.86284 -0.61927 1.82757
thorax 4.22029 -0.338585 1.83046
lowerneck -14.3174 1.00419 -1.38395
upperneck 31.6157 2.10424 -0.755972
head 12.9268 0.656342 0.2649
rclavicle 2.83268e-015 -7.95139e-016
rhumerus -25.0329 -20.8079 -77.4765
rradius 22.7017
rwrist 35.3186
rhand -20.549 -27.5005
rfingers 7.12502
rthumb 5.80975 -57.4009
lclavicle 2.83268e-015 -7.95139e-016
lhumerus -21.4482 1.58602 87.6626
lradius 17.1793
lwrist 1.00281
lhand -25.2668 -4.28465
lfingers 7.12502
lthumb 1.25389 25.6914
rfemur -12.823 -1.61991 19.233
rtibia 22.4601
rfoot -14.0526 -2.11638
rtoes 9.09084
lfemur -10.9084 7.58281 -18.5241
ltibia 19.567
lfoot -12.1367 4.69282
ltoes 2.77037
150
root 0.515089 17.5418 -13.8123 5.41933 -1.25073 -1.29216
lowerback -2.21694 -0.418038 0.0381652
upperback 2.85789 -0.62989 1.83434
thorax 4.20869 -0.343785 1.83448
lowerneck -14.3178 1.00799 -1.37738
upperneck 31.5967 2.11064 -0.765203
head 12.9191 0.659017 0.261102
rclavicle -1.05853e-014 -2.78299e-015
rhumerus -25.0642 -20.7751 -77.4643
rradius 22.7055
rwrist 35.323
rhand -20.5685 -27.5114
rfingers 7.12502
rthumb 5.79098 -57.4123
lclavicle -1.05853e-014 -2.78299e-015
lhumerus -21.4396 1.55754 87.6743
lradius 17.1851
lwrist 1.02074
lhand -25.2546 -4.2748
lfingers 7.12502
lthumb 1.26572 25.7012
rfemur -12.8236 -1.6505 19.2493
rtibia 22.4176
rfoot -14.0286 -2.10844
rtoes 9.13939
lfemur -10.9305 7.5666 -18.5109
ltibia 19.546
lfoot -12.1182 4.6692
ltoes 2.78054
151
root 0.513094 17.5429 -13.8146 5.436 -1.2163 -1.29804
lowerback -2.206 -0.424517 0.0424971
upperback 2.8541 -0.638734 1.83965
thorax 4.19885 -0.348085 1.83708
lowerneck -14.3189 1.01046 -1.3725
upperneck 31.5771 2.11403 -0.76967
head 12.9113 0.660801 0.258991
rclavicle -1.93815e-015 1.70955e-014
rhumerus -25.0924 -20.7442 -77.4541
rradius 22.7152
rwrist 35.2993
rhand -20.5547 -27.5308
rfingers 7.12502
rthumb 5.80431 -57.4313
lclavicle -1.93815e-015 1.70955e-014
lhumerus -21.4287 1.52538 87.6859
lradius 17.1901
lwrist 1.04025
lhand -25.2436 -4.26821
lfingers 7.12502
lthumb 1.27627 25.7077
rfemur -12.825 -1.67994 19.2645
rtibia 22.3763
rfoot -14.0032 -2.10248
rtoes 9.1795
lfemur -10.9533 7.54891 -18.4988
ltibia 19.5273
lfoot -12.0983 4.6481
ltoes 2.79126
152
root 0.51114 17.544 -13.8168 5.45241 -1.18452 -1.30319
lowerback -2.19645 -0.429476 0.0466342
upperback 2.85116 -0.645531 1.84401
thorax 4.19061 -0.351367 1.83891
lowerneck -14.3174 1.01184 -1.37208
upperneck 31.5557 2.11501 -0.768093
head 12.9019 0.661844 0.259603
rclavicle -8.15017e-015 9.93923e-015
rhumerus -25.1178 -20.7306 -77.439
rradius 22.714
rwrist 35.299
rhand -20.5532 -27.5302
rfingers 7.12502
rthumb 5.80571 -57.4307
lclavicle -8.15017e-015 9.93923e-015
lhumerus -21.4159 1.48818 87.699
lradius 17.1927
lwrist 1.06221
lhand -25.2322 -4.26502
lfingers 7.12502
lthumb 1.28728 25.7108
rfemur -12.8273 -1.70799 19.2788
rtibia 22.3366
rfoot -13.9782 -2.09578
rtoes 9.21268
lfemur -10.9758 7.52996 -18.4876
ltibia 19.5101
lfoot -12.0781 4.63014
ltoes 2.80809
153
root 0.509279 17.545 -13.819 5.46848 -1.15363 -1.30841
lowerback -2.18642 -0.433828 0.0502842
upperback 2.84825 -0.651523 1.84925
thorax 4.18211 -0.354279 1.84198
lowerneck -14.3165 1.01189 -1.37588
upperneck 31.5349 2.11416 -0.763017
head 12.8929 0.662029 0.262034
rclavicle -1.13307e-014 2.18663e-014
rhumerus -25.1404 -20.723 -77.4201
rradius 22.7081
rwrist 35.3077
rhand -20.5492 -27.5289
rfingers 7.12502
rthumb 5.80956 -57.4293
lclavicle -1.13307e-014 2.18663e-014
lhumerus -21.4045 1.45403 87.714
lradius 17.1956
lwrist 1.07698
lhand -25.217 -4.2555
lfingers 7.12502
lthumb 1.30195 25.7203
rfemur -12.8285 -1.73624 19.2921
rtibia 22.2978
rfoot -13.9559 -2.08484
rtoes 9.26486
lfemur -10.9971 7.5093 -18.4766
ltibia 19.4932
lfoot -12.0591 4.61428
ltoes 2.83329
154
root 0.507478 17.5461 -13.8212 5.4853 -1.1256 -1.31707
lowerback -2.1784 -0.437492 0.057347
upperback 2.8458 -0.656813 1.85563
thorax 4.1752 -0.356762 1.84435
lowerneck -14.3139 1.01089 -1.38351
upperneck 31.5142 2.11227 -0.756231
head 12.8835 0.661528 0.265617
rclavicle 1.46107e-014 -5.96354e-015
rhumerus -25.1571 -20.7316 -77.3961
rradius 22.6888
rwrist 35.3401
rhand -20.553 -27.5097
rfingers 7.12502
rthumb 5.8059 -57.4101
lclavicle 1.46107e-014 -5.96354e-015
lhumerus -21.3928 1.42347 87.7295
lradius 17.1971
lwrist 1.08791
lhand -25.2069 -4.25461
lfingers 7.12502
lthumb 1.31179 25.7211
rfemur -12.8305 -1.75997 19.3085
rtibia 22.2603
rfoot -13.9357 -2.07213
rtoes 9.33352
lfemur -11.0188 7.4889 -18.4624
ltibia 19.4762
lfoot -12.0397 4.60195
ltoes 2.85203
